<?xml version="1.0" encoding="utf-8"?>
<!-- Generator: Adobe Illustrator 19.1.0, SVG Export Plug-In . SVG Version: 6.00 Build 0)  -->
<!DOCTYPE svg PUBLIC "-//W3C//DTD SVG 1.1//EN" "http://www.w3.org/Graphics/SVG/1.1/DTD/svg11.dtd">
<svg version="1.1" id="Layer_1" xmlns="http://www.w3.org/2000/svg" xmlns:xlink="http://www.w3.org/1999/xlink" x="0px" y="0px"
	 viewBox="-1062.4 1322.6 705 304.5" style="enable-background:new -1062.4 1322.6 705 304.5;" xml:space="preserve">
<style type="text/css">
	.st0{fill:#666766;}
	.st1{fill:none;stroke:#666766;stroke-width:3.0351;}
</style>
<g>
	<g>
		<g>
			<path class="st0" d="M-1022.7,1614.3h-25.1v-77.4h21.1c12.3,0,23.2,10,23.2,22.5c0,5.3-2.7,10.1-5.8,14c5.6,4.1,10,10.7,10,18.2
				C-999.3,1604.1-1010.2,1614.3-1022.7,1614.3z M-1026.7,1549.5h-7.8v19.6h7.8c5.4,0,9.8-4.4,9.8-9.8
				C-1016.9,1553.8-1021.3,1549.5-1026.7,1549.5z M-1022.8,1581.5h-11.7v20.2h11.7c5.6,0,10.2-4.4,10.2-10
				C-1012.7,1586-1017.2,1581.5-1022.8,1581.5z"/>
			<path class="st0" d="M-985.7,1614.3v-77.4h49.5v12.6h-36.2v19.3h30v12.6h-30v20.3h36.2v12.6H-985.7z"/>
			<path class="st0" d="M-890,1549.5v64.8h-13.3v-64.8h-24.5v-12.6h62.3v12.6H-890z"/>
			<path class="st0" d="M-819.3,1549.5v64.8h-13.3v-64.8h-24.5v-12.6h62.3v12.6H-819.3z"/>
			<path class="st0" d="M-785.7,1614.3v-77.4h49.5v12.6h-36.2v19.3h30v12.6h-30v20.3h36.2v12.6H-785.7z"/>
			<path class="st0" d="M-667.9,1606.7l-9.2,9.3l-20.3-20.3h-9.2v18.6H-720v-77.4h19.8c16.2,0,29.6,13.2,29.6,29.4
				c0,10.3-5.4,19.3-13.3,24.5L-667.9,1606.7z M-700.1,1549.5h-6.5v33.6h6.5c9,0,16.2-7.5,16.2-16.9
				C-683.9,1557.1-691.1,1549.5-700.1,1549.5z"/>
		</g>
		<path class="st0" d="M-600.7,1616c-16.6,0-29.9-13.3-29.9-29.9v-47.5h13.1v47.7c0,9.6,7.7,17.3,16.8,17.3c9,0,16.6-7.7,16.6-17.3
			v-47.7h13v47.5C-571,1602.7-584.3,1616-600.7,1616z"/>
		<path class="st0" d="M-524.7,1552.5v63.5h-13.1v-63.5h-24v-12.4h61.1v12.4H-524.7z"/>
		<path class="st0" d="M-451.2,1616l-6.4-13.3h-33.5l-6.4,13.3h-14.3l37.3-77.6h0.3l37.3,77.6H-451.2z M-474.2,1567.7h-0.3l-11,22.8
			l0.2,0.3h21.8l0.2-0.3L-474.2,1567.7z"/>
		<path class="st0" d="M-382.5,1616v-32.3h-32.7v32.3h-13.1v-75.9h13.1v31.3h32.7v-31.3h13.1v75.9H-382.5z"/>
	</g>
	<g>
		<path class="st0" d="M-965,1434.9l-8.5-17.6h-44.5l-8.5,17.6h-19L-996,1332h0.5l49.5,102.9H-965z M-995.5,1370.8h-0.5l-14.5,30.2
			l0.3,0.5h28.8l0.3-0.5L-995.5,1370.8z"/>
		<path class="st0" d="M-934.6,1434.9v-100.7h17.3v84.3h46.2v16.4H-934.6z"/>
		<path class="st0" d="M-856.6,1434.9v-100.7h17.3v84.3h46.1v16.4H-856.6z"/>
		<path class="st0" d="M-778.6,1434.9v-100.7h17.3v100.7H-778.6z"/>
		<path class="st0" d="M-669.4,1434.9l-8.5-17.6h-44.5l-8.5,17.6h-19l49.5-102.9h0.5l49.5,102.9H-669.4z M-700,1370.8h-0.5
			L-715,1401l0.3,0.5h28.9l0.3-0.5L-700,1370.8z"/>
		<path class="st0" d="M-621.3,1373.1h-0.5v61.8h-17.3V1332h0.5l65,64.2h0.5v-61.9h17.3v102.9h-0.4L-621.3,1373.1z"/>
		<path class="st0" d="M-487.1,1436.9c-29.1,0-52.8-23.5-52.8-52.5c0-29.2,23.7-52.7,52.8-52.7c14.9,0,27.8,5.9,37.5,15.5l-12,12
			c-6.4-6.7-15.6-11.1-25.7-11.1c-19.3,0-35.2,16.4-35.2,36.4c0,19.6,15.9,36,35.2,36c10,0,19.4-4.4,25.8-11.1l12,12
			C-459.2,1430.9-472.2,1436.9-487.1,1436.9z"/>
		<path class="st0" d="M-433.6,1434.9v-100.7h64.4v16.4h-47.1v25.1h39v16.4h-39v26.4h47.1v16.4L-433.6,1434.9L-433.6,1434.9z"/>
	</g>
	<g>
		<path class="st0" d="M-759.7,1470.4c1.2-5.2,2.7-9.3,5.8-12.4c3.5-3.5,7.6-5.3,10.1-5.3c2.9,0,4.5,1.8,4.5,3.2
			c-0.1,1.4-1.3,2.8-2.2,3.3c-0.6,0.4-1.1,0.5-1.7-0.1c-1.6-1.9-3.1-3-4.3-3c-1.7-0.1-3.2,1.8-5.2,14.3h7.5l-1.4,2.4l-6.7,0.6
			c-1.1,6.4-1.9,11.4-3.5,18.8c-2.5,10.9-5.2,15.5-9.5,19.3c-2.7,2.6-5.4,3.7-7.3,3.7c-2,0-4.3-1.4-4.3-3c0-1.3,1.1-2.6,2.2-3.4
			c0.5-0.4,0.9-0.5,1.3-0.1c1.2,1.1,3.5,2,4.8,2c1,0,1.8-0.5,2.4-1.5c0.5-0.9,1.6-3.3,3.5-14.6c1.5-9,2.4-14.8,3.5-21.2h-5.3
			l-0.2-0.7l2.1-2.3L-759.7,1470.4L-759.7,1470.4z"/>
		<path class="st0" d="M-747.6,1489.1c0-8.5,4.7-14.8,9.8-17.5c2.6-1.4,5.5-2.4,8.1-2.4c6.1,0,9.4,4.1,9.4,10.3
			c0,5.7-2.3,11.9-7,15.8c-2.8,2.4-6.9,4.2-10.8,4.2C-745.4,1499.7-747.6,1494.2-747.6,1489.1z M-733.8,1496.5
			c2.9-1.2,6.1-8.1,6.1-17c0-5.2-1.9-7.5-4.4-7.5c-0.6,0-1.3,0.1-1.9,0.4c-2,1-6.2,6.4-6.2,17c0,4.9,2,7.5,4.5,7.5
			C-734.9,1496.9-734.4,1496.7-733.8,1496.5z"/>
		<path class="st0" d="M-705.2,1479.9c3.2-6,6.7-10.6,9.5-10.6c1.2,0,2.4,0.7,3,1.7c0.7,1,0.6,2.4-0.2,3.6c-0.7,1.2-1.4,1.9-2.1,2.5
			c-0.6,0.4-1.1,0.5-1.6,0.1c-0.8-0.9-1.7-1.2-2.5-1.2c-0.7,0-1.4,0.4-2.8,2.3c-1.6,2.3-3.3,5.3-4.1,7.5c-0.9,3.8-1.9,8.8-2.6,12.6
			c-2.1,0.3-4.6,0.8-6.4,1.3l-0.5-0.5c1.6-6.9,3.2-14.1,4.5-21.1c0.4-2.1,0.4-2.9-0.1-2.9c-0.6,0-2.8,1.3-4.2,2.6l-1-1.7
			c3.7-3.8,8-6.7,10.2-6.7c1.8,0,2.2,2.5,1.2,7.6l-0.7,3L-705.2,1479.9L-705.2,1479.9z"/>
		<path class="st0" d="M-647.2,1492.3c-4.1,5-8.8,7.4-10.9,7.4c-1.4,0-2.7-0.9-1.6-6.5l0.9-4.5h-0.2c-2.4,3.3-5,5.9-7.1,7.7
			c-2,1.7-4.6,3.2-6.7,3.2c-2.3,0-4.3-2.6-4.3-7.8c0-6.4,2.9-13.1,7.5-17c3.1-2.8,8.4-5.6,13.4-5.6c1.3,0,2.7,0.2,4.1,0.5
			c1.3,0.3,2.4,0.4,3.3,0.4l0.3,0.3c-1.2,5.1-3,12.8-4.4,20.8c-0.4,2.1-0.3,2.7,0.1,2.7c0.6,0,2.9-1.6,4.5-3.3L-647.2,1492.3z
			 M-658,1483.6c0.9-3,2-8.2,2.3-10.3c-0.8-0.5-2.5-0.9-3.9-0.9c-1.4,0-2.6,0.3-3.5,1c-4.3,3.1-6.5,11.1-6.5,17
			c0,2.7,0.6,3.9,1.6,3.9C-665.7,1494.4-659.4,1486.7-658,1483.6z"/>
	</g>
	<line class="st1" x1="-1048.2" y1="1482.2" x2="-783.1" y2="1482.2"/>
	<line class="st1" x1="-634.2" y1="1482.2" x2="-369.3" y2="1482.2"/>
</g>
</svg>
